<svg width="421" height="419" viewBox="0 0 421 419" fill="none" xmlns="http://www.w3.org/2000/svg">
<rect x="334.716" y="274.068" width="15.265" height="106.855" rx="7.63248" transform="rotate(50 334.716 274.068)" fill="#FCFCFC"/>
<rect x="353.539" y="222.406" width="15.265" height="201.498" rx="7.63248" transform="rotate(50 353.539 222.406)" fill="#FCFCFC"/>
<rect x="354.587" y="185.658" width="15.265" height="250.345" rx="7.63248" transform="rotate(50 354.587 185.658)" fill="#FCFCFC"/>
<rect x="348.619" y="154.797" width="15.265" height="280.875" rx="7.63248" transform="rotate(50 348.619 154.797)" fill="#FCFCFC"/>
<rect x="337.973" y="127.861" width="15.265" height="299.193" rx="7.63248" transform="rotate(50 337.973 127.861)" fill="#FCFCFC"/>
<rect x="322.342" y="105.434" width="15.265" height="305.299" rx="7.63248" transform="rotate(50 322.342 105.434)" fill="#FCFCFC"/>
<rect x="302.649" y="85.7642" width="15.265" height="299.193" rx="7.63248" transform="rotate(50 302.649 85.7642)" fill="#FCFCFC"/>
<rect x="277.971" y="70.6028" width="15.265" height="280.875" rx="7.63248" transform="rotate(50 277.971 70.6028)" fill="#FCFCFC"/>
<rect x="248.616" y="59.3665" width="15.265" height="250.345" rx="7.63248" transform="rotate(50 248.616 59.3665)" fill="#FCFCFC"/>
<rect x="212.244" y="54.0173" width="15.265" height="201.498" rx="7.63248" transform="rotate(50 212.244 54.0173)" fill="#FCFCFC"/>
<rect x="158.098" y="63.5825" width="15.265" height="106.855" rx="7.63248" transform="rotate(50 158.098 63.5825)" fill="#FCFCFC"/>
</svg>
